<mxfile host="app.diagrams.net" agent="Mozilla/5.0 (Windows NT 10.0; Win64; x64) AppleWebKit/537.36 (KHTML, like Gecko) Chrome/135.0.0.0 Safari/537.36" version="26.2.13">
  <diagram name="Page-1" id="sF0ofpWr8CGY15hyAE6l">
    <mxGraphModel dx="1392" dy="1599" grid="1" gridSize="10" guides="1" tooltips="1" connect="1" arrows="1" fold="1" page="1" pageScale="1" pageWidth="1100" pageHeight="850" math="0" shadow="0">
      <root>
        <mxCell id="0" />
        <mxCell id="1" parent="0" />
        <mxCell id="YgsIUFnuYaH-n-QrTtp9-56" value="" style="rounded=0;whiteSpace=wrap;html=1;fillColor=#dae8fc;strokeColor=#6c8ebf;" vertex="1" parent="1">
          <mxGeometry x="30" y="-20" width="1000" height="860" as="geometry" />
        </mxCell>
        <mxCell id="YgsIUFnuYaH-n-QrTtp9-60" style="edgeStyle=orthogonalEdgeStyle;rounded=0;orthogonalLoop=1;jettySize=auto;html=1;exitX=0.5;exitY=0;exitDx=0;exitDy=0;entryX=0.5;entryY=1;entryDx=0;entryDy=0;" edge="1" parent="1" source="YgsIUFnuYaH-n-QrTtp9-1" target="YgsIUFnuYaH-n-QrTtp9-59">
          <mxGeometry relative="1" as="geometry" />
        </mxCell>
        <mxCell id="YgsIUFnuYaH-n-QrTtp9-1" value="" style="whiteSpace=wrap;html=1;aspect=fixed;fillColor=#dae8fc;strokeColor=#6c8ebf;" vertex="1" parent="1">
          <mxGeometry x="445" y="130" width="140" height="140" as="geometry" />
        </mxCell>
        <mxCell id="YgsIUFnuYaH-n-QrTtp9-2" value="argocd" style="ellipse;whiteSpace=wrap;html=1;aspect=fixed;fillColor=#dae8fc;strokeColor=#6c8ebf;" vertex="1" parent="1">
          <mxGeometry x="480" y="140" width="70" height="70" as="geometry" />
        </mxCell>
        <mxCell id="YgsIUFnuYaH-n-QrTtp9-4" value="ns" style="rounded=0;whiteSpace=wrap;html=1;fillColor=#dae8fc;strokeColor=#6c8ebf;" vertex="1" parent="1">
          <mxGeometry x="525" y="240" width="60" height="30" as="geometry" />
        </mxCell>
        <mxCell id="YgsIUFnuYaH-n-QrTtp9-6" value="app&lt;div&gt;&lt;br&gt;&lt;/div&gt;" style="whiteSpace=wrap;html=1;aspect=fixed;fillColor=#dae8fc;strokeColor=#6c8ebf;" vertex="1" parent="1">
          <mxGeometry x="80" y="370" width="105" height="105" as="geometry" />
        </mxCell>
        <mxCell id="YgsIUFnuYaH-n-QrTtp9-7" value="app&lt;div&gt;&lt;br&gt;&lt;/div&gt;" style="whiteSpace=wrap;html=1;aspect=fixed;fillColor=#dae8fc;strokeColor=#6c8ebf;" vertex="1" parent="1">
          <mxGeometry x="260" y="370" width="105" height="105" as="geometry" />
        </mxCell>
        <mxCell id="YgsIUFnuYaH-n-QrTtp9-14" value="app&lt;div&gt;&lt;br&gt;&lt;/div&gt;" style="whiteSpace=wrap;html=1;aspect=fixed;fillColor=#dae8fc;strokeColor=#6c8ebf;" vertex="1" parent="1">
          <mxGeometry x="740" y="370" width="105" height="105" as="geometry" />
        </mxCell>
        <mxCell id="YgsIUFnuYaH-n-QrTtp9-15" value="spoke" style="text;html=1;align=center;verticalAlign=middle;whiteSpace=wrap;rounded=0;fillColor=#dae8fc;strokeColor=#6c8ebf;" vertex="1" parent="1">
          <mxGeometry x="90" y="490" width="60" height="30" as="geometry" />
        </mxCell>
        <mxCell id="YgsIUFnuYaH-n-QrTtp9-16" value="spoke" style="text;html=1;align=center;verticalAlign=middle;whiteSpace=wrap;rounded=0;fillColor=#dae8fc;strokeColor=#6c8ebf;" vertex="1" parent="1">
          <mxGeometry x="762.5" y="490" width="60" height="30" as="geometry" />
        </mxCell>
        <mxCell id="YgsIUFnuYaH-n-QrTtp9-17" value="spoke" style="text;html=1;align=center;verticalAlign=middle;whiteSpace=wrap;rounded=0;fillColor=#dae8fc;strokeColor=#6c8ebf;" vertex="1" parent="1">
          <mxGeometry x="282.5" y="490" width="60" height="30" as="geometry" />
        </mxCell>
        <mxCell id="YgsIUFnuYaH-n-QrTtp9-24" style="edgeStyle=orthogonalEdgeStyle;rounded=0;orthogonalLoop=1;jettySize=auto;html=1;exitX=0.5;exitY=0;exitDx=0;exitDy=0;entryX=0.5;entryY=1;entryDx=0;entryDy=0;fillColor=#dae8fc;strokeColor=#6c8ebf;" edge="1" parent="1" source="YgsIUFnuYaH-n-QrTtp9-20" target="YgsIUFnuYaH-n-QrTtp9-15">
          <mxGeometry relative="1" as="geometry" />
        </mxCell>
        <mxCell id="YgsIUFnuYaH-n-QrTtp9-20" value="Tenant 1" style="rounded=1;whiteSpace=wrap;html=1;fillColor=#dae8fc;strokeColor=#6c8ebf;" vertex="1" parent="1">
          <mxGeometry x="60" y="570" width="120" height="60" as="geometry" />
        </mxCell>
        <mxCell id="YgsIUFnuYaH-n-QrTtp9-25" style="edgeStyle=orthogonalEdgeStyle;rounded=0;orthogonalLoop=1;jettySize=auto;html=1;exitX=0.5;exitY=0;exitDx=0;exitDy=0;fillColor=#dae8fc;strokeColor=#6c8ebf;" edge="1" parent="1" source="YgsIUFnuYaH-n-QrTtp9-21" target="YgsIUFnuYaH-n-QrTtp9-17">
          <mxGeometry relative="1" as="geometry" />
        </mxCell>
        <mxCell id="YgsIUFnuYaH-n-QrTtp9-21" value="Tenant 2" style="rounded=1;whiteSpace=wrap;html=1;fillColor=#dae8fc;strokeColor=#6c8ebf;" vertex="1" parent="1">
          <mxGeometry x="252.5" y="580" width="120" height="60" as="geometry" />
        </mxCell>
        <mxCell id="YgsIUFnuYaH-n-QrTtp9-26" style="edgeStyle=orthogonalEdgeStyle;rounded=0;orthogonalLoop=1;jettySize=auto;html=1;entryX=0.5;entryY=1;entryDx=0;entryDy=0;fillColor=#dae8fc;strokeColor=#6c8ebf;" edge="1" parent="1" source="YgsIUFnuYaH-n-QrTtp9-22" target="YgsIUFnuYaH-n-QrTtp9-16">
          <mxGeometry relative="1" as="geometry" />
        </mxCell>
        <mxCell id="YgsIUFnuYaH-n-QrTtp9-22" value="Tenant n" style="rounded=1;whiteSpace=wrap;html=1;fillColor=#dae8fc;strokeColor=#6c8ebf;" vertex="1" parent="1">
          <mxGeometry x="732.5" y="570" width="120" height="70" as="geometry" />
        </mxCell>
        <mxCell id="YgsIUFnuYaH-n-QrTtp9-23" value="Hub" style="text;html=1;align=center;verticalAlign=middle;whiteSpace=wrap;rounded=0;fillColor=#dae8fc;strokeColor=#6c8ebf;" vertex="1" parent="1">
          <mxGeometry x="490" y="270" width="60" height="30" as="geometry" />
        </mxCell>
        <mxCell id="YgsIUFnuYaH-n-QrTtp9-28" style="edgeStyle=orthogonalEdgeStyle;rounded=0;orthogonalLoop=1;jettySize=auto;html=1;entryX=1;entryY=0.5;entryDx=0;entryDy=0;fillColor=#dae8fc;strokeColor=#6c8ebf;" edge="1" parent="1" source="YgsIUFnuYaH-n-QrTtp9-27" target="YgsIUFnuYaH-n-QrTtp9-1">
          <mxGeometry relative="1" as="geometry" />
        </mxCell>
        <mxCell id="YgsIUFnuYaH-n-QrTtp9-27" value="Monitoring and logging" style="rounded=1;whiteSpace=wrap;html=1;fillColor=#dae8fc;strokeColor=#6c8ebf;" vertex="1" parent="1">
          <mxGeometry x="820" y="160" width="180" height="80" as="geometry" />
        </mxCell>
        <mxCell id="YgsIUFnuYaH-n-QrTtp9-29" value="ns" style="rounded=0;whiteSpace=wrap;html=1;fillColor=#dae8fc;strokeColor=#6c8ebf;" vertex="1" parent="1">
          <mxGeometry x="305" y="445" width="60" height="30" as="geometry" />
        </mxCell>
        <mxCell id="YgsIUFnuYaH-n-QrTtp9-30" value="ns" style="rounded=0;whiteSpace=wrap;html=1;fillColor=#dae8fc;strokeColor=#6c8ebf;" vertex="1" parent="1">
          <mxGeometry x="125" y="445" width="60" height="30" as="geometry" />
        </mxCell>
        <mxCell id="YgsIUFnuYaH-n-QrTtp9-32" value="ns" style="rounded=0;whiteSpace=wrap;html=1;fillColor=#dae8fc;strokeColor=#6c8ebf;" vertex="1" parent="1">
          <mxGeometry x="785" y="445" width="60" height="30" as="geometry" />
        </mxCell>
        <mxCell id="YgsIUFnuYaH-n-QrTtp9-33" value="ns" style="rounded=0;whiteSpace=wrap;html=1;fillColor=#dae8fc;strokeColor=#6c8ebf;" vertex="1" parent="1">
          <mxGeometry x="940" y="210" width="60" height="30" as="geometry" />
        </mxCell>
        <mxCell id="YgsIUFnuYaH-n-QrTtp9-34" value="" style="whiteSpace=wrap;html=1;aspect=fixed;fillColor=#dae8fc;strokeColor=#6c8ebf;" vertex="1" parent="1">
          <mxGeometry x="92.5" y="150" width="120" height="120" as="geometry" />
        </mxCell>
        <mxCell id="YgsIUFnuYaH-n-QrTtp9-35" style="edgeStyle=orthogonalEdgeStyle;rounded=0;orthogonalLoop=1;jettySize=auto;html=1;exitX=0.5;exitY=1;exitDx=0;exitDy=0;fillColor=#dae8fc;strokeColor=#6c8ebf;" edge="1" parent="1" source="YgsIUFnuYaH-n-QrTtp9-33" target="YgsIUFnuYaH-n-QrTtp9-33">
          <mxGeometry relative="1" as="geometry" />
        </mxCell>
        <mxCell id="YgsIUFnuYaH-n-QrTtp9-36" value="" style="shape=cylinder3;whiteSpace=wrap;html=1;boundedLbl=1;backgroundOutline=1;size=15;fillColor=#dae8fc;strokeColor=#6c8ebf;" vertex="1" parent="1">
          <mxGeometry x="120" y="170" width="60" height="80" as="geometry" />
        </mxCell>
        <mxCell id="YgsIUFnuYaH-n-QrTtp9-37" value="Stateful Set for DB" style="text;html=1;align=center;verticalAlign=middle;whiteSpace=wrap;rounded=0;fillColor=#dae8fc;strokeColor=#6c8ebf;" vertex="1" parent="1">
          <mxGeometry x="110" y="280" width="60" height="30" as="geometry" />
        </mxCell>
        <mxCell id="YgsIUFnuYaH-n-QrTtp9-43" value="" style="endArrow=none;html=1;rounded=0;fillColor=#dae8fc;strokeColor=#6c8ebf;" edge="1" parent="1">
          <mxGeometry width="50" height="50" relative="1" as="geometry">
            <mxPoint x="110" y="340" as="sourcePoint" />
            <mxPoint x="800" y="340" as="targetPoint" />
          </mxGeometry>
        </mxCell>
        <mxCell id="YgsIUFnuYaH-n-QrTtp9-44" value="" style="endArrow=classic;html=1;rounded=0;fillColor=#dae8fc;strokeColor=#6c8ebf;" edge="1" parent="1">
          <mxGeometry width="50" height="50" relative="1" as="geometry">
            <mxPoint x="110" y="340" as="sourcePoint" />
            <mxPoint x="110" y="370" as="targetPoint" />
          </mxGeometry>
        </mxCell>
        <mxCell id="YgsIUFnuYaH-n-QrTtp9-45" value="" style="endArrow=classic;html=1;rounded=0;fillColor=#dae8fc;strokeColor=#6c8ebf;" edge="1" parent="1">
          <mxGeometry width="50" height="50" relative="1" as="geometry">
            <mxPoint x="305" y="340" as="sourcePoint" />
            <mxPoint x="305" y="370" as="targetPoint" />
            <Array as="points" />
          </mxGeometry>
        </mxCell>
        <mxCell id="YgsIUFnuYaH-n-QrTtp9-46" value="" style="endArrow=classic;html=1;rounded=0;fillColor=#dae8fc;strokeColor=#6c8ebf;" edge="1" parent="1">
          <mxGeometry width="50" height="50" relative="1" as="geometry">
            <mxPoint x="800" y="340" as="sourcePoint" />
            <mxPoint x="800" y="370" as="targetPoint" />
            <Array as="points" />
          </mxGeometry>
        </mxCell>
        <mxCell id="YgsIUFnuYaH-n-QrTtp9-47" value="" style="endArrow=classic;html=1;rounded=0;exitX=0.826;exitY=1.032;exitDx=0;exitDy=0;exitPerimeter=0;fillColor=#dae8fc;strokeColor=#6c8ebf;" edge="1" parent="1" source="YgsIUFnuYaH-n-QrTtp9-34">
          <mxGeometry width="50" height="50" relative="1" as="geometry">
            <mxPoint x="190" y="230" as="sourcePoint" />
            <mxPoint x="190" y="340" as="targetPoint" />
          </mxGeometry>
        </mxCell>
        <mxCell id="YgsIUFnuYaH-n-QrTtp9-48" value="Ingress" style="whiteSpace=wrap;html=1;aspect=fixed;fillColor=#dae8fc;strokeColor=#6c8ebf;" vertex="1" parent="1">
          <mxGeometry x="305" y="170" width="80" height="80" as="geometry" />
        </mxCell>
        <mxCell id="YgsIUFnuYaH-n-QrTtp9-49" value="" style="endArrow=classic;html=1;rounded=0;fillColor=#dae8fc;strokeColor=#6c8ebf;" edge="1" parent="1">
          <mxGeometry width="50" height="50" relative="1" as="geometry">
            <mxPoint x="344.5" y="250" as="sourcePoint" />
            <mxPoint x="345" y="340" as="targetPoint" />
          </mxGeometry>
        </mxCell>
        <mxCell id="YgsIUFnuYaH-n-QrTtp9-53" value="" style="endArrow=classic;startArrow=classic;html=1;rounded=0;entryX=0.549;entryY=0.013;entryDx=0;entryDy=0;entryPerimeter=0;fillColor=#dae8fc;strokeColor=#6c8ebf;" edge="1" parent="1" target="YgsIUFnuYaH-n-QrTtp9-27">
          <mxGeometry width="50" height="50" relative="1" as="geometry">
            <mxPoint x="135" y="150" as="sourcePoint" />
            <mxPoint x="920" y="100" as="targetPoint" />
            <Array as="points">
              <mxPoint x="135" y="100" />
              <mxPoint x="920" y="100" />
            </Array>
          </mxGeometry>
        </mxCell>
        <mxCell id="YgsIUFnuYaH-n-QrTtp9-54" value="" style="endArrow=none;dashed=1;html=1;dashPattern=1 3;strokeWidth=2;rounded=0;fillColor=#dae8fc;strokeColor=#6c8ebf;" edge="1" parent="1">
          <mxGeometry width="50" height="50" relative="1" as="geometry">
            <mxPoint x="400" y="420" as="sourcePoint" />
            <mxPoint x="710" y="420" as="targetPoint" />
          </mxGeometry>
        </mxCell>
        <mxCell id="YgsIUFnuYaH-n-QrTtp9-55" value="" style="endArrow=none;dashed=1;html=1;dashPattern=1 3;strokeWidth=2;rounded=0;fillColor=#dae8fc;strokeColor=#6c8ebf;" edge="1" parent="1">
          <mxGeometry width="50" height="50" relative="1" as="geometry">
            <mxPoint x="400" y="604.5" as="sourcePoint" />
            <mxPoint x="710" y="604.5" as="targetPoint" />
          </mxGeometry>
        </mxCell>
        <mxCell id="YgsIUFnuYaH-n-QrTtp9-57" value="&lt;font style=&quot;font-size: 18px;&quot;&gt;Minikube Cluster&lt;/font&gt;" style="text;html=1;align=center;verticalAlign=middle;whiteSpace=wrap;rounded=0;fillColor=#dae8fc;strokeColor=#6c8ebf;" vertex="1" parent="1">
          <mxGeometry x="770" y="800" width="170" height="20" as="geometry" />
        </mxCell>
        <mxCell id="YgsIUFnuYaH-n-QrTtp9-59" value="&lt;font style=&quot;font-size: 16px;&quot;&gt;Infrastructure Repository&lt;/font&gt;" style="whiteSpace=wrap;html=1;aspect=fixed;fillColor=#dae8fc;strokeColor=#6c8ebf;" vertex="1" parent="1">
          <mxGeometry x="455" y="-280" width="120" height="120" as="geometry" />
        </mxCell>
      </root>
    </mxGraphModel>
  </diagram>
</mxfile>
